<!-- Generated by IcoMoon.io -->
<svg version="1.1" xmlns="http://www.w3.org/2000/svg" width="1024" height="1024" viewBox="0 0 1024 1024">
<title></title>
<g id="icomoon-ignore">
</g>
<path fill="#000" d="M577.248 599.072v105.376h127.872v127.872h-127.872v127.872h-129.824v-127.872h-127.84v-127.872h127.84v-105.76c-109.92-28.64-191.136-128.288-191.136-247.136 0-141.216 114.496-255.712 255.712-255.712 141.248 0 255.68 114.496 255.68 255.712 0 119.328-79.872 219.264-190.432 247.52zM512 223.712c-70.624 0-127.872 57.216-127.872 127.84 0 70.592 57.248 127.84 127.872 127.84s127.872-57.248 127.872-127.84c0-70.624-57.248-127.84-127.872-127.84z"></path>
</svg>
