<!-- Generated by IcoMoon.io -->
<svg version="1.1" xmlns="http://www.w3.org/2000/svg" width="1024" height="1024" viewBox="0 0 1024 1024">
<title></title>
<g id="icomoon-ignore">
</g>
<path fill="#000" d="M540.864 192.128h292l-0.64 295.328-100.128-100.096-94.368 94.368c21.184 37.248 33.376 80.224 33.376 126.112 0 141.376-114.56 256-256 256-141.376 0-256-114.624-256-256s114.624-256 256-256c48.8 0 94.272 13.92 133.12 37.632l93.376-94.592-100.736-102.752zM287.136 607.872c0 70.688 57.312 128 128 128s128-57.312 128-128-57.312-128-128-128-128 57.312-128 128z"></path>
</svg>
